<svg id="Layer_1" data-name="Layer 1" xmlns="http://www.w3.org/2000/svg" viewBox="0 0 95.35 69.67"><defs><style>.cls-1{fill:#263954;}</style></defs><path class="cls-1" d="M4.38,55h0l0,0,.06-.06a.89.89,0,0,0,.14-.12l1-.87c.25-.23.46-.43.64-.58l.44-.4.34-.33c.15-.13.28-.26.41-.36L7.76,52A1.61,1.61,0,0,1,8,51.84a.81.81,0,0,1,.28,0h2.11a1.6,1.6,0,0,1,.36,0,.13.13,0,0,1,.12.14.29.29,0,0,1-.09.23,1.14,1.14,0,0,1-.23.15l-.34.19a1.52,1.52,0,0,0-.42.33c-.27.27-.6.58-1,.95s-.9.85-1.55,1.44L7,55.53a.28.28,0,0,0,0,.2A.38.38,0,0,0,7,56l.23.28,1.61,2.14c.53.71,1.05,1.44,1.57,2.17a.92.92,0,0,0,.26.26l.26.16.19.13a.21.21,0,0,1,.08.17c0,.09,0,.14-.16.16H8.63l-.37,0a.34.34,0,0,1-.2-.16c-.07-.1-.12-.18-.17-.24s-.12-.16-.22-.32a1.64,1.64,0,0,0-.17-.26L7.2,60l-.49-.64c-.2-.26-.46-.6-.78-1a3.78,3.78,0,0,0-.27-.35l-.33-.45-.18-.21A.26.26,0,0,0,5,57.32a.4.4,0,0,0-.25.1,1.32,1.32,0,0,0-.23.24,2.19,2.19,0,0,0-.16.3.83.83,0,0,0-.06.28c0,.7,0,1.24,0,1.61a3.11,3.11,0,0,0,.11.81.68.68,0,0,0,.23.36.35.35,0,0,1,.17.24.14.14,0,0,1-.12.15l-.25,0H1.38a.35.35,0,0,1-.23-.07.22.22,0,0,1-.09-.16c0-.07.05-.15.16-.25a1.06,1.06,0,0,0,.24-.29,1.52,1.52,0,0,0,.15-.43,6.46,6.46,0,0,0,.1-.73c0-.31.05-.7.06-1.16s0-1,0-1.72,0-1.24,0-1.71,0-.85-.06-1.16a6.7,6.7,0,0,0-.1-.74,1.44,1.44,0,0,0-.15-.42L1.3,52.3a.49.49,0,0,1-.07-.23.21.21,0,0,1,.23-.26h3a.8.8,0,0,1,.23,0c.07,0,.1.08.1.19a.24.24,0,0,1-.14.2.48.48,0,0,0-.19.36,4.21,4.21,0,0,0-.07.8c0,.38,0,.85-.07,1.41C4.28,55,4.31,55,4.38,55Z"/><path class="cls-1" d="M15.15,56.62c0,.68,0,1.25,0,1.72s0,.85.05,1.16a4.57,4.57,0,0,0,.11.73,3.5,3.5,0,0,0,.13.44,1.11,1.11,0,0,0,.25.29.46.46,0,0,1,.17.24.22.22,0,0,1-.09.16.35.35,0,0,1-.23.07H12.28a.41.41,0,0,1-.23-.06.21.21,0,0,1-.11-.16.39.39,0,0,1,.17-.24,1.39,1.39,0,0,0,.26-.3,2.29,2.29,0,0,0,.14-.44,6.46,6.46,0,0,0,.1-.73c0-.31.05-.7.07-1.16s0-1,0-1.72,0-1.24,0-1.71,0-.85-.07-1.16a6.7,6.7,0,0,0-.1-.74,1.86,1.86,0,0,0-.14-.42,3,3,0,0,0-.2-.29.52.52,0,0,1-.12-.25.2.2,0,0,1,.09-.15.32.32,0,0,1,.23-.09h3.12a.41.41,0,0,1,.23.06.23.23,0,0,1,.12.16.4.4,0,0,1-.14.26,1.5,1.5,0,0,0-.23.3,2.68,2.68,0,0,0-.13.42,4.73,4.73,0,0,0-.11.74c0,.31,0,.69-.05,1.16S15.15,56,15.15,56.62Z"/><path class="cls-1" d="M20.23,55.88c-.05,0-.09,0-.11.14s0,.15,0,.2c0,.38,0,.77,0,1.16s0,.79,0,1.18V59c0,.2,0,.41,0,.63s0,.42,0,.61a1.35,1.35,0,0,0,.1.41,1.82,1.82,0,0,0,.19.25q.15.16.15.24t-.12.24a.76.76,0,0,1-.27.05H17.31a.6.6,0,0,1-.2,0c-.06,0-.08-.08-.08-.17a.54.54,0,0,1,.16-.28l.21-.28a2,2,0,0,0,.16-.62,8.14,8.14,0,0,0,.08-.9c0-.31,0-.61,0-.91s0-.51,0-.67V56c0-.34,0-.7,0-1.08s0-.73,0-1.06,0-.62-.05-.86a2,2,0,0,0-.08-.48.84.84,0,0,0-.21-.29.3.3,0,0,1-.13-.25.18.18,0,0,1,.12-.17,1.07,1.07,0,0,1,.37,0h1.87a.8.8,0,0,1,.43.12,1.81,1.81,0,0,1,.33.29,1.93,1.93,0,0,1,.28.36l.25.36c.49.68,1,1.39,1.53,2.15s1,1.47,1.54,2.14a.24.24,0,0,0,.08.09.19.19,0,0,0,.12,0c.05,0,.08,0,.1-.13a1.11,1.11,0,0,0,0-.28,1.4,1.4,0,0,0,0-.29V55.27c0-.27,0-.55,0-.84s0-.57,0-.83,0-.48-.05-.67a1.23,1.23,0,0,0-.07-.39l-.17-.27a.37.37,0,0,1-.09-.22c0-.11.07-.18.22-.2a1.84,1.84,0,0,1,.39,0h2.33a.76.76,0,0,1,.21,0c.07,0,.11.08.11.19a.4.4,0,0,1-.08.23,1.53,1.53,0,0,0-.16.25,6.74,6.74,0,0,0-.19,1.79c0,1,0,2.38,0,4.26,0,.12,0,.28,0,.5v.67c0,.22,0,.44,0,.64a1.51,1.51,0,0,0,.1.46.55.55,0,0,0,.14.17.26.26,0,0,1,.09.21c0,.12,0,.18-.12.2s-.3,0-.64,0H24.79a1.23,1.23,0,0,1-.43,0,.69.69,0,0,1-.3-.28,14.67,14.67,0,0,0-1-1.49c-.37-.48-.72-1-1.06-1.45l-.79-1.11c-.27-.39-.55-.75-.83-1.1A.15.15,0,0,0,20.23,55.88Z"/><path class="cls-1" d="M35.48,60.57a4.28,4.28,0,0,0-.37.26l-.27.18-.19.12a4.92,4.92,0,0,1-.87.33,4,4,0,0,1-.93.12,5.31,5.31,0,0,1-2-.36,4.29,4.29,0,0,1-1.51-1,4.38,4.38,0,0,1-.95-1.57,6.32,6.32,0,0,1,0-4A4.38,4.38,0,0,1,29.32,53a4.29,4.29,0,0,1,1.51-1,5.31,5.31,0,0,1,2-.37c.31,0,.59,0,.83,0a7,7,0,0,1,.7.09A6,6,0,0,1,35,52a7.21,7.21,0,0,1,.78.32l.34.18a.31.31,0,0,1,.2.26,1.17,1.17,0,0,1-.15.34c-.09.19-.2.39-.32.59l-.37.6-.23.36,0,.06a.05.05,0,0,1-.06,0l-.08-.06L35,54.51l-.17-.16-.14-.11a3.29,3.29,0,0,0-.87-.38,4.08,4.08,0,0,0-.93-.11,2.46,2.46,0,0,0-1.11.23,1.89,1.89,0,0,0-.72.62,2.61,2.61,0,0,0-.41.91,5,5,0,0,0-.12,1.11,4.88,4.88,0,0,0,.12,1.1,2.61,2.61,0,0,0,.41.91,1.89,1.89,0,0,0,.72.62,2.46,2.46,0,0,0,1.11.23A2.28,2.28,0,0,0,34.3,59a1.65,1.65,0,0,0,.57-1.38c0-.12,0-.2,0-.23s-.11-.05-.23-.05a4.17,4.17,0,0,0-.71.05,3.85,3.85,0,0,0-.69.16l-.17.07a.38.38,0,0,1-.17,0c-.11,0-.17,0-.17-.14a.63.63,0,0,1,0-.14l.09-.28.1-.28c0-.08,0-.14,0-.16.09-.27.16-.48.2-.64a1,1,0,0,1,.17-.35.48.48,0,0,1,.25-.14,2.39,2.39,0,0,1,.43,0h3.12a.44.44,0,0,1,.17,0c.06,0,.08.07.08.14a.5.5,0,0,1,0,.15l-.07.14a1.12,1.12,0,0,0-.07.36c0,.17,0,.35,0,.54s0,.39,0,.56V60.3a1.45,1.45,0,0,0,.15.66c.09.2.15.33.16.37s-.08.1-.27.1h-1.1l-.23,0a.17.17,0,0,1-.11-.06.34.34,0,0,1-.06-.16l-.07-.3a1,1,0,0,0,0-.19C35.54,60.62,35.51,60.57,35.48,60.57Z"/><path class="cls-1" d="M40.34,58.48l.08.1.11.12,0,0a3.05,3.05,0,0,0,.81.63,1.91,1.91,0,0,0,1,.25,4.58,4.58,0,0,0,.53,0,1.41,1.41,0,0,0,.48-.12.73.73,0,0,0,.33-.27.88.88,0,0,0,.13-.51c0-.27-.17-.48-.52-.64A11.53,11.53,0,0,0,42,57.58c-.39-.12-.8-.26-1.22-.41a5.14,5.14,0,0,1-1.15-.57,3,3,0,0,1-.85-.86,2.22,2.22,0,0,1-.34-1.26,2.67,2.67,0,0,1,.39-1.38,2.7,2.7,0,0,1,.89-.89A3.67,3.67,0,0,1,41,51.75a7.23,7.23,0,0,1,1.4-.14,6.65,6.65,0,0,1,1.16.19,6.58,6.58,0,0,1,1.16.39,4.65,4.65,0,0,1,.9.54.82.82,0,0,1,.35.62.75.75,0,0,1-.19.35l-.43.51-.45.48a1.06,1.06,0,0,1-.24.21s-.06,0-.1-.07a1,1,0,0,0-.14-.16,3.34,3.34,0,0,0-.92-.81,2.53,2.53,0,0,0-1.19-.31h0a2.29,2.29,0,0,0-.84.18.59.59,0,0,0-.39.55.57.57,0,0,0,.16.41,1.56,1.56,0,0,0,.41.33,3.6,3.6,0,0,0,.59.27l.71.25c.39.13.79.27,1.2.43a4.67,4.67,0,0,1,1.1.6,3.14,3.14,0,0,1,.82.92,2.71,2.71,0,0,1,.32,1.36,2.32,2.32,0,0,1-.18.89,2.85,2.85,0,0,1-.44.76,2,2,0,0,1-.71.58,5,5,0,0,1-.91.33,6.35,6.35,0,0,1-.93.14l-.78,0h-.23A4.17,4.17,0,0,1,41,61.44a6.53,6.53,0,0,1-1.7-.7l-.4-.25a1,1,0,0,1-.37-.42.33.33,0,0,1,0-.18.44.44,0,0,1,.13-.2,4.28,4.28,0,0,1,.29-.33l.35-.37.15-.17.32-.37.15-.16c.05-.06.09-.1.14-.1a.19.19,0,0,1,.14.08Z"/><path class="cls-1" d="M62.33,55.73a.15.15,0,0,0-.08.05,1.62,1.62,0,0,0-.26.37c-.12.21-.26.47-.42.77l-.51.95-.5,1c-.16.29-.29.54-.41.74a1.51,1.51,0,0,1-.23.35.27.27,0,0,1-.16.08l-.33,0h-.14a.69.69,0,0,1-.2,0,.22.22,0,0,1-.15-.13l-.29-.51-.41-.74c-.15-.27-.31-.54-.48-.83L57.3,57c-.15-.26-.28-.5-.41-.71l-.31-.46-.07,0a.16.16,0,0,0-.13.07.37.37,0,0,0-.06.23c0,.35,0,.71,0,1.08s0,.73,0,1.06c0,.17,0,.38,0,.62s0,.48,0,.72a6.49,6.49,0,0,0,.07.68,1.34,1.34,0,0,0,.11.46.91.91,0,0,0,.19.26.34.34,0,0,1,.13.23c0,.13,0,.2-.1.23a.61.61,0,0,1-.24,0H53.81a.82.82,0,0,1-.28,0,.17.17,0,0,1-.11-.2,1,1,0,0,1,.13-.27l.16-.27a2.77,2.77,0,0,0,.17-.61c0-.28.07-.59.09-1s0-.73,0-1.13V55.07c0-.48,0-.89,0-1.21s0-.6,0-.8a2.36,2.36,0,0,0-.06-.47.86.86,0,0,0-.14-.29,1.45,1.45,0,0,1-.15-.23.2.2,0,0,1,0-.17c0-.06.08-.09.17-.09H55.6l.54,0a1,1,0,0,1,.35.1.89.89,0,0,1,.28.27c.08.13.19.3.31.52s.25.45.46.8.41.72.64,1.1l.64,1.12.46.82a.14.14,0,0,0,.15.11.18.18,0,0,0,.17-.11c0-.07.13-.27.3-.59l.58-1.09c.22-.4.44-.81.65-1.22l.51-1a4.59,4.59,0,0,1,.27-.48,1.08,1.08,0,0,1,.23-.27.57.57,0,0,1,.23-.12l.28,0H65c.09,0,.15,0,.17.09a.2.2,0,0,1,0,.17,1.08,1.08,0,0,1-.15.22.67.67,0,0,0-.13.3,1.71,1.71,0,0,0-.07.46c0,.2,0,.46,0,.79s0,.73,0,1.21v1.74c0,.38,0,.78,0,1.17s0,.78,0,1.14,0,.66.08.94a2.47,2.47,0,0,0,.16.62,2.06,2.06,0,0,0,.19.25.41.41,0,0,1,.13.24c0,.12,0,.2-.11.23a.58.58,0,0,1-.26,0H62.38l-.26,0a.15.15,0,0,1-.11-.16.56.56,0,0,1,.08-.26l.14-.22a1.53,1.53,0,0,0,.13-.45c0-.2,0-.43,0-.69s0-.53,0-.8,0-.52,0-.76v-2C62.46,55.84,62.42,55.73,62.33,55.73Z"/><path class="cls-1" d="M72.52,57.5l-1-.08c-.35,0-.69,0-1,0a1,1,0,0,0-.53.11.54.54,0,0,0-.24.3,1.42,1.42,0,0,0-.06.44v.54a.83.83,0,0,0,.22.6.85.85,0,0,0,.61.21c.63,0,1.22,0,1.76-.08a8.13,8.13,0,0,0,1.72-.36l.16-.06.17,0a.23.23,0,0,1,.11,0,.1.1,0,0,1,.06.09,1.16,1.16,0,0,1,0,.22,2.36,2.36,0,0,1-.13.37c-.05.14-.09.27-.13.39s-.07.21-.09.25c-.08.24-.14.43-.19.56a.7.7,0,0,1-.17.31.44.44,0,0,1-.29.14l-.59,0h-6c-.18,0-.27-.08-.27-.23a.53.53,0,0,1,.15-.27,1.39,1.39,0,0,0,.2-.26,2.36,2.36,0,0,0,.2-.81c.05-.37.08-.76.11-1.18s0-.81,0-1.19v-.83c0-.21,0-.5,0-.88s0-.78-.05-1.2-.07-.81-.12-1.17a2.73,2.73,0,0,0-.21-.82,2,2,0,0,0-.22-.31.47.47,0,0,1-.13-.26c0-.11,0-.17.1-.19a.8.8,0,0,1,.23,0h5.62l.56,0a.46.46,0,0,1,.31.12.64.64,0,0,1,.18.3c0,.14.1.33.17.59,0,.06,0,.14.07.26l.06.35a2.45,2.45,0,0,1,.06.34,1.35,1.35,0,0,1,0,.2s0,.08,0,.09l-.1,0a.6.6,0,0,1-.26-.07l-.25-.1a4.46,4.46,0,0,0-1.15-.24c-.37,0-.76,0-1.18,0a2.68,2.68,0,0,0-.71.07.67.67,0,0,0-.38.23,1.14,1.14,0,0,0-.16.45,6.81,6.81,0,0,0,0,.7c0,.27.09.43.28.49a2,2,0,0,0,.61.08,8.94,8.94,0,0,0,1,0l1-.1a.31.31,0,0,1,.2,0,.29.29,0,0,1,0,.18v1.5a.41.41,0,0,1,0,.19s-.07,0-.17,0Z"/><path class="cls-1" d="M78.45,55.88c-.06,0-.1,0-.11.14a1,1,0,0,0,0,.2c0,.38,0,.77,0,1.16V59c0,.2,0,.41,0,.63s0,.42,0,.61a1.35,1.35,0,0,0,.1.41,2.12,2.12,0,0,0,.2.25.51.51,0,0,1,.14.24q0,.2-.12.24a.76.76,0,0,1-.27.05H75.53a.66.66,0,0,1-.21,0s-.08-.08-.08-.17A.54.54,0,0,1,75.4,61a1.77,1.77,0,0,0,.21-.28,2,2,0,0,0,.16-.62q.06-.42.09-.9l0-.91c0-.29,0-.51,0-.67V56c0-.34,0-.7,0-1.08s0-.73,0-1.06,0-.62,0-.86a1.82,1.82,0,0,0-.09-.48.64.64,0,0,0-.21-.29.33.33,0,0,1-.13-.25.21.21,0,0,1,.12-.17,1.07,1.07,0,0,1,.37,0h1.88a.76.76,0,0,1,.42.12,1.87,1.87,0,0,1,.34.29,3.44,3.44,0,0,1,.28.36q.12.2.24.36c.49.68,1,1.39,1.54,2.15s1,1.47,1.53,2.14c0,.05.06.08.09.09a.16.16,0,0,0,.11,0s.08,0,.11-.13a1.88,1.88,0,0,0,0-.28v-.29a1.82,1.82,0,0,1,0-.2V55.27c0-.27,0-.55,0-.84s0-.57,0-.83,0-.48,0-.67a1.49,1.49,0,0,0-.08-.39,3.18,3.18,0,0,0-.17-.27.42.42,0,0,1-.08-.22c0-.11.07-.18.21-.2a1.84,1.84,0,0,1,.39,0h2.33a.76.76,0,0,1,.21,0c.08,0,.11.08.11.19a.34.34,0,0,1-.08.23,1,1,0,0,0-.15.25,6.57,6.57,0,0,0-.2,1.79c0,1,0,2.38,0,4.26,0,.12,0,.28,0,.5v.67c0,.22,0,.44,0,.64a1.55,1.55,0,0,0,.09.46.55.55,0,0,0,.14.17.24.24,0,0,1,.1.21c0,.12,0,.18-.13.2s-.3,0-.63,0H83a1.23,1.23,0,0,1-.43,0,.68.68,0,0,1-.29-.28c-.32-.51-.66-1-1-1.49s-.73-1-1.07-1.45l-.79-1.11c-.27-.39-.54-.75-.83-1.1A.16.16,0,0,0,78.45,55.88Z"/><path class="cls-1" d="M88.3,58.48l.08.1.11.12,0,0a3.05,3.05,0,0,0,.81.63,1.91,1.91,0,0,0,1,.25,4.58,4.58,0,0,0,.53,0,1.47,1.47,0,0,0,.48-.12.73.73,0,0,0,.33-.27.88.88,0,0,0,.13-.51c0-.27-.17-.48-.52-.64A11.53,11.53,0,0,0,90,57.58c-.39-.12-.8-.26-1.22-.41a5.14,5.14,0,0,1-1.15-.57,3,3,0,0,1-.85-.86,2.22,2.22,0,0,1-.34-1.26,2.67,2.67,0,0,1,.39-1.38,2.61,2.61,0,0,1,.89-.89,3.69,3.69,0,0,1,1.23-.46,7.41,7.41,0,0,1,1.41-.14,6.8,6.8,0,0,1,1.16.19,6.58,6.58,0,0,1,1.16.39,4.65,4.65,0,0,1,.9.54.85.85,0,0,1,.35.62.75.75,0,0,1-.19.35l-.43.51-.45.48a1.06,1.06,0,0,1-.24.21s-.06,0-.1-.07a1,1,0,0,0-.14-.16,3.34,3.34,0,0,0-.92-.81,2.53,2.53,0,0,0-1.19-.31h0a2.25,2.25,0,0,0-.84.18.61.61,0,0,0-.4.55.58.58,0,0,0,.17.41,1.56,1.56,0,0,0,.41.33,3.25,3.25,0,0,0,.59.27l.71.25c.39.13.79.27,1.2.43a4.67,4.67,0,0,1,1.1.6,3.14,3.14,0,0,1,.82.92,2.71,2.71,0,0,1,.32,1.36,2.32,2.32,0,0,1-.18.89,2.85,2.85,0,0,1-.44.76,2,2,0,0,1-.71.58,5.23,5.23,0,0,1-.91.33,6.35,6.35,0,0,1-.93.14l-.78,0h-.23A4.24,4.24,0,0,1,89,61.44a5.79,5.79,0,0,1-1-.33,6,6,0,0,1-.72-.37l-.4-.25a1,1,0,0,1-.37-.42.33.33,0,0,1,0-.18.37.37,0,0,1,.13-.2,4.28,4.28,0,0,1,.29-.33l.35-.37.15-.17.32-.37.15-.16c0-.06.09-.1.14-.1a.19.19,0,0,1,.14.08Z"/><path class="cls-1" d="M17.4,65.18a.14.14,0,0,1,0,.07v0a.4.4,0,0,1-.13.31.42.42,0,0,1-.31.13h-.56v3.13a.09.09,0,0,1,0,.06.09.09,0,0,1-.07,0h-.16a.4.4,0,0,1-.31-.13.43.43,0,0,1-.14-.32V65.72H14.8a.09.09,0,0,1-.07,0,.11.11,0,0,1,0-.06v0a.42.42,0,0,1,.13-.32.42.42,0,0,1,.31-.13h2.18A.09.09,0,0,1,17.4,65.18Z"/><path class="cls-1" d="M21.13,65.28a.46.46,0,0,1,.13.32v3.25a.09.09,0,0,1,0,.06.09.09,0,0,1-.07,0H21a.4.4,0,0,1-.31-.13.42.42,0,0,1-.13-.32V67.37H19.17v1.48a.14.14,0,0,1,0,.06.11.11,0,0,1-.07,0h-.16a.44.44,0,0,1-.32-.13.46.46,0,0,1-.13-.32V65.25a.1.1,0,0,1,.1-.1h.16a.4.4,0,0,1,.31.13.42.42,0,0,1,.13.32v1.13h1.39V65.25a.09.09,0,0,1,0-.07.07.07,0,0,1,.06,0h.16A.42.42,0,0,1,21.13,65.28Z"/><path class="cls-1" d="M25,65.19a.1.1,0,0,1,0,.09v.06a.37.37,0,0,1-.11.27.33.33,0,0,1-.27.11H23.2v1h1.33a.14.14,0,0,1,.13.13V67a.37.37,0,0,1-.11.27.37.37,0,0,1-.27.12H23.2v.9a.12.12,0,0,0,0,.09.15.15,0,0,0,.09,0h1.35a.33.33,0,0,1,.27.11.37.37,0,0,1,.11.27v.06a.14.14,0,0,1-.13.13H23a.51.51,0,0,1-.51-.51V65.28a.14.14,0,0,1,.13-.13h2.3A.1.1,0,0,1,25,65.19Z"/><path class="cls-1" d="M31,65.28a.42.42,0,0,1,.13.32v2a1.56,1.56,0,0,1,0,.39,1.25,1.25,0,0,1-.11.31,1.38,1.38,0,0,1-.14.24,1.17,1.17,0,0,1-.15.16,1.52,1.52,0,0,1-1,.35,1.46,1.46,0,0,1-1-.35,1.54,1.54,0,0,1-.3-.4,1.55,1.55,0,0,1-.14-.7V65.25a.14.14,0,0,1,0-.07.09.09,0,0,1,.07,0h.16a.44.44,0,0,1,.45.45v2.14a.75.75,0,0,0,.2.58.5.5,0,0,0,.28.14l.27,0,.28,0a.5.5,0,0,0,.27-.14.72.72,0,0,0,.21-.58V65.25a.14.14,0,0,1,0-.07.09.09,0,0,1,.07,0h.16A.42.42,0,0,1,31,65.28Z"/><path class="cls-1" d="M34.6,68.48a.37.37,0,0,1,.11.27v.06a.1.1,0,0,1,0,.09.11.11,0,0,1-.09,0H32.85a.51.51,0,0,1-.51-.51V65.28a.14.14,0,0,1,.13-.13h.12a.44.44,0,0,1,.45.45v2.64a.12.12,0,0,0,0,.09.13.13,0,0,0,.09,0h1.16A.36.36,0,0,1,34.6,68.48Z"/><path class="cls-1" d="M37.75,65.18a.14.14,0,0,1,0,.07v0a.44.44,0,0,1-.44.44h-.56v3.13a.09.09,0,0,1,0,.06.09.09,0,0,1-.07,0h-.16a.4.4,0,0,1-.31-.13.42.42,0,0,1-.13-.32V65.72h-.92a.09.09,0,0,1-.09-.09v0a.44.44,0,0,1,.45-.45h2.17A.09.09,0,0,1,37.75,65.18Z"/><path class="cls-1" d="M39.39,65.28a.43.43,0,0,1,.14.32v3.25a.09.09,0,0,1,0,.06.09.09,0,0,1-.07,0h-.16a.4.4,0,0,1-.31-.13.43.43,0,0,1-.14-.32V65.25a.1.1,0,0,1,.1-.1h.16A.4.4,0,0,1,39.39,65.28Z"/><path class="cls-1" d="M44.37,65.28a.42.42,0,0,1,.13.32v3.21a.14.14,0,0,1-.13.13h-.12a.44.44,0,0,1-.45-.45v-2l-.89,2.09a.14.14,0,0,1-.12.08h-.1a.4.4,0,0,1-.24-.07.47.47,0,0,1-.17-.2l-.81-1.9v2.37a.14.14,0,0,1-.13.13h-.13a.42.42,0,0,1-.31-.13.42.42,0,0,1-.13-.32V65.28a.14.14,0,0,1,.13-.13h.42a.46.46,0,0,1,.4.26l.92,2,1-2.2a.11.11,0,0,1,.11-.08h.31A.42.42,0,0,1,44.37,65.28Z"/><path class="cls-1" d="M48.67,68.81a.13.13,0,0,1,0,.09.09.09,0,0,1-.08,0h-.33a.34.34,0,0,1-.22-.07.41.41,0,0,1-.14-.2l-.2-.66H46.5l-.26.86a.09.09,0,0,1-.09.07H46a.34.34,0,0,1-.18,0,.41.41,0,0,1-.14-.12.44.44,0,0,1-.06-.16.37.37,0,0,1,0-.18l1-3a.43.43,0,0,1,.18-.24.45.45,0,0,1,.3-.1h.26a.1.1,0,0,1,.12.09ZM47.5,67.37,47.1,66l-.41,1.34Z"/><path class="cls-1" d="M51.84,65.18a.09.09,0,0,1,0,.07v0a.44.44,0,0,1-.45.44h-.56v3.13a.11.11,0,0,1-.09.09h-.16a.44.44,0,0,1-.45-.45V65.72h-.91a.09.09,0,0,1-.07,0,.07.07,0,0,1,0-.06v0a.46.46,0,0,1,.13-.32.44.44,0,0,1,.32-.13h2.17A.08.08,0,0,1,51.84,65.18Z"/><path class="cls-1" d="M55.44,65.19a.1.1,0,0,1,0,.09v.06a.37.37,0,0,1-.11.27.36.36,0,0,1-.27.11H53.62v1H55a.14.14,0,0,1,.13.13V67a.37.37,0,0,1-.11.27.37.37,0,0,1-.27.12H53.62v.9a.12.12,0,0,0,0,.09.13.13,0,0,0,.09,0H55.1a.36.36,0,0,1,.27.11.37.37,0,0,1,.11.27v.06a.14.14,0,0,1-.13.13H53.43a.51.51,0,0,1-.51-.51V65.28a.14.14,0,0,1,.13-.13h2.3A.1.1,0,0,1,55.44,65.19Z"/><path class="cls-1" d="M61,68.48a.37.37,0,0,1,.11.27v.06a.14.14,0,0,1-.13.13H59.24a.51.51,0,0,1-.51-.51V65.28a.14.14,0,0,1,.13-.13H59a.44.44,0,0,1,.45.45v2.64a.12.12,0,0,0,0,.09.13.13,0,0,0,.09,0h1.16A.36.36,0,0,1,61,68.48Z"/><path class="cls-1" d="M64.81,65.28a.46.46,0,0,1,.13.32v2a1.54,1.54,0,0,1,0,.39,1.25,1.25,0,0,1-.1.31,1.38,1.38,0,0,1-.14.24,1.17,1.17,0,0,1-.15.16,1.52,1.52,0,0,1-1,.35,1.49,1.49,0,0,1-1-.35,1.33,1.33,0,0,1-.29-.4,1.43,1.43,0,0,1-.15-.7V65.25a.1.1,0,0,1,.1-.1h.16a.4.4,0,0,1,.31.13.42.42,0,0,1,.13.32v2.14a.72.72,0,0,0,.21.58.5.5,0,0,0,.27.14l.28,0,.27,0a.5.5,0,0,0,.27-.14.72.72,0,0,0,.22-.58V65.25a.08.08,0,0,1,0-.07.09.09,0,0,1,.07,0h.16A.44.44,0,0,1,64.81,65.28Z"/><path class="cls-1" d="M69,68.79a.09.09,0,0,1,0,.1.1.1,0,0,1-.08,0h-.43a.4.4,0,0,1-.35-.19l-.69-1.13-.9,1.28a.1.1,0,0,1-.08,0h-.14a.37.37,0,0,1-.21-.06.42.42,0,0,1-.14-.16.45.45,0,0,1,0-.2.32.32,0,0,1,.08-.21l1-1.32L66,65.3a.09.09,0,0,1,0-.1.09.09,0,0,1,.08,0h.44a.37.37,0,0,1,.33.19l.66,1.06.94-1.2a.12.12,0,0,1,.1,0,.37.37,0,0,1,.21.06.52.52,0,0,1,.14.16.45.45,0,0,1,0,.2.33.33,0,0,1-.09.21l-1,1.24Z"/><path class="cls-1" d="M72.78,65.28a.46.46,0,0,1,.13.32v2a2.23,2.23,0,0,1,0,.39,1.85,1.85,0,0,1-.11.31,1.38,1.38,0,0,1-.14.24,1.17,1.17,0,0,1-.15.16,1.52,1.52,0,0,1-1,.35,1.49,1.49,0,0,1-1-.35,1.33,1.33,0,0,1-.29-.4,1.43,1.43,0,0,1-.14-.7V65.25a.08.08,0,0,1,0-.07.09.09,0,0,1,.07,0h.16a.44.44,0,0,1,.32.13.46.46,0,0,1,.13.32v2.14a.72.72,0,0,0,.2.58.5.5,0,0,0,.27.14l.28,0,.28,0a.54.54,0,0,0,.27-.14.72.72,0,0,0,.21-.58V65.25a.08.08,0,0,1,0-.07.09.09,0,0,1,.07,0h.16A.44.44,0,0,1,72.78,65.28Z"/><path class="cls-1" d="M76.06,67.39l.13.3c0,.11.1.23.16.35s.13.25.2.38.14.25.22.37a.08.08,0,0,1,0,.1.11.11,0,0,1-.09,0H76.3a.46.46,0,0,1-.23-.06.52.52,0,0,1-.16-.17A5.1,5.1,0,0,1,75.6,68c-.08-.21-.14-.39-.19-.53h-.62v1.36a.09.09,0,0,1,0,.06.09.09,0,0,1-.07,0h-.16a.4.4,0,0,1-.31-.13.42.42,0,0,1-.13-.32V65.25a.14.14,0,0,1,0-.07.11.11,0,0,1,.07,0H75.6a1.13,1.13,0,0,1,.56.12,1.26,1.26,0,0,1,.32.24,1.1,1.1,0,0,1,.24.42,1.43,1.43,0,0,1,0,.51,1.39,1.39,0,0,1-.12.41,1.06,1.06,0,0,1-.26.34A1.32,1.32,0,0,1,76.06,67.39Zm-1.27-.47h.81a.38.38,0,0,0,.31-.16.62.62,0,0,0,.15-.38.86.86,0,0,0,0-.28.71.71,0,0,0-.08-.21.45.45,0,0,0-.37-.17h-.81Z"/><path class="cls-1" d="M80.16,65.21a.41.41,0,0,1,.16.16.37.37,0,0,1,.06.21.4.4,0,0,1,0,.23,5.5,5.5,0,0,1-.28.48l-.28.41-.26.33-.19.22v1.6a.14.14,0,0,1,0,.06.09.09,0,0,1-.07,0h-.16a.44.44,0,0,1-.32-.13.46.46,0,0,1-.13-.32V67.21l-1.07-1.92a.08.08,0,0,1,0-.1.1.1,0,0,1,.09,0H78a.39.39,0,0,1,.23.07.44.44,0,0,1,.16.17L79,66.63a2.6,2.6,0,0,0,.2-.28c.07-.11.14-.22.21-.35a2.93,2.93,0,0,0,.21-.39c.07-.14.14-.27.2-.4a.08.08,0,0,1,.08-.06h0A.4.4,0,0,1,80.16,65.21Z"/><rect class="cls-1" x="1.25" y="66.85" width="12.03" height="0.52"/><rect class="cls-1" x="82.27" y="66.85" width="12.03" height="0.52"/><path class="cls-1" d="M35.93,16.2a.75.75,0,0,0,.21-.85A2.36,2.36,0,0,1,37,12.84,2.51,2.51,0,0,1,39.7,13a16.25,16.25,0,0,0-2.56,6.17,3.83,3.83,0,0,0,.41,3.13c.87,1.21,1.77,2.39,2.69,3.56a.86.86,0,0,1,.2.6,20.23,20.23,0,0,0,0,2.06A3.7,3.7,0,0,0,42.7,32a1.39,1.39,0,0,0,1.37,0A10.3,10.3,0,0,1,45,31.5l1.9-.9A1.59,1.59,0,0,0,47,27.93c-.92-.5-1.78-1.12-2.66-1.7a1.46,1.46,0,0,1-.77-1.56c.07-.41.1-.83.15-1.25.09-.85.22-1.7.27-2.55a1,1,0,0,0-1-1.14,4.17,4.17,0,0,1-.49-.08A3.46,3.46,0,0,1,40,17.18H43.3a1.71,1.71,0,0,1,1.6,1,2.53,2.53,0,0,1,.17,1.69c-.2,1.14-.45,2.26-.67,3.39-.08.45-.13.9-.2,1.39h8.48c-.06-.44-.1-.84-.18-1.23-.25-1.27-.53-2.53-.75-3.8a2,2,0,0,1,1.68-2.48c1.16-.05,2.33,0,3.59,0-.76,1.5-1.73,2.51-3.43,2.55a.62.62,0,0,0-.39.18,1.54,1.54,0,0,0-.36,1.21c.13.92.19,1.85.38,2.75a2.16,2.16,0,0,1-1.13,2.65c-.79.43-1.51,1-2.28,1.44a1.31,1.31,0,0,0-.64,1.24,1.48,1.48,0,0,0,.89,1.46c.93.45,1.86.92,2.81,1.32a1.57,1.57,0,0,0,1,.09,3.2,3.2,0,0,0,2.36-2.42,22.18,22.18,0,0,0,.19-3.27,1,1,0,0,1,.15-.48c.9-1.19,1.82-2.36,2.71-3.55a2.75,2.75,0,0,0,.57-1.86,10.63,10.63,0,0,0-.26-1.95A16.16,16.16,0,0,0,57.11,13c.31-.12.59-.25.88-.34a2,2,0,0,1,2.43.93,2.65,2.65,0,0,1,.23,2c0,.11,0,.27.05.33.44.45.9.88,1.36,1.31a4.42,4.42,0,0,0,.11-5.66,4.6,4.6,0,0,0-3-1.71c-1.62-.25-2.8.7-4,1.59a5.09,5.09,0,0,0-6.84,1l-.22-.25a2.83,2.83,0,0,0-.24-.25,5,5,0,0,0-5.19-1.1c-.41.13-.81.53-1.17.49s-.74-.47-1.11-.73a4,4,0,0,0-5,.16,4.51,4.51,0,0,0-.61,6.61C35.19,17,35.54,16.57,35.93,16.2Z"/><path class="cls-1" d="M55.72,35.43a7.31,7.31,0,0,1-2.94,3.64A16,16,0,0,0,49.1,42.7c-.24.31-.47.64-.71,1l-.24-.36a16.17,16.17,0,0,0-3.9-4.18,8.43,8.43,0,0,1-3-3.57s-.07-.06-.15-.13a13.71,13.71,0,0,0,1.15,6.13c1.37,2.86,3.69,4.84,6.19,6.63C53,45.72,56.5,39.64,55.72,35.43Z"/><path class="cls-1" d="M41.77,8.12c.08.51.28.6.73.58,5.33-.3,6,1.6,6,1.6s.95-1.92,6.17-1.71l.32,0c.32-1.74.65-3.47,1-5.26-.44.13-.83.28-1.24.36s-.42.18-.46.52A2.18,2.18,0,0,1,51.64,6.4,2,2,0,0,1,50,5.17a1.64,1.64,0,0,1,.36-1.83l.4-.48L48.49.6,46,2.78a6.23,6.23,0,0,1,.44.56,3.27,3.27,0,0,1,.48,1A1.7,1.7,0,0,1,46,6.17a2.13,2.13,0,0,1-2.36-.07,2.52,2.52,0,0,1-1-2c0-.11-.1-.27-.19-.3-.45-.16-.92-.29-1.41-.43a3,3,0,0,0,0,.3C41.25,5.13,41.55,6.62,41.77,8.12Z"/><path class="cls-1" d="M59.86,27.67c-.54.75-1.06,1.47-1.56,2.19a.79.79,0,0,0-.11.5,22.48,22.48,0,0,1-.38,8.53,19.51,19.51,0,0,1-2.13,5c.3-.15.51-.25.71-.37a9.86,9.86,0,0,0,4.92-5.79,12.36,12.36,0,0,0-.11-6.9A15.39,15.39,0,0,0,59.86,27.67Z"/><path class="cls-1" d="M38.67,30.43a.7.7,0,0,0,0-.48c-.44-.63-.9-1.25-1.38-1.85-.18-.23-.38-.22-.53.08a13.86,13.86,0,0,0-1.62,6,9.89,9.89,0,0,0,1.17,5.28,11.35,11.35,0,0,0,4.81,4.42c-.51-1.07-1.1-2.08-1.49-3.16A20.12,20.12,0,0,1,38.67,30.43Z"/><path class="cls-1" d="M48.65,31.92a.56.56,0,0,0-.44,0q-2.22,1-4.44,2c-.14.07-.22.27-.27.35a2.08,2.08,0,0,0,.77,1.52,17.39,17.39,0,0,0,4,2.58.38.38,0,0,0,.34,0c1.08-.63,2.17-1.23,3.21-1.92a3.64,3.64,0,0,0,1.46-1.64c.21-.5.16-.69-.33-.91C51.55,33.19,50.1,32.55,48.65,31.92Z"/><path class="cls-1" d="M65.54,27.16a13.75,13.75,0,0,0-2.64-6.44l-.45-.58a15.29,15.29,0,0,1-.15,1.92c-.21,1-.51,2-.75,3a1.09,1.09,0,0,0,0,.67A18.32,18.32,0,0,1,63.2,31c.2,1.46.31,2.95.45,4.41l.06-.07A11,11,0,0,0,65.54,27.16Z"/><path class="cls-1" d="M35.28,25.63a.7.7,0,0,0,0-.55,12,12,0,0,1-.82-4.4c0-.17,0-.34,0-.57-3.84,4.69-4.32,11.19-1.18,15.3l0-.06a2.09,2.09,0,0,0,0-.25A20.9,20.9,0,0,1,35.28,25.63Z"/></svg>